Coordinates
version=1
nRows=26
nColumns=30
inDegrees=yes

Units are S.I. units (second, meters, Newtons, ...)
Angles are in degrees.

endheader
time	floatyaw	floatroll	floatpitch	floatx	floaty	floatz	pro_sup_l	deviation_l	flexion_l	cmc_flexion_l	cmc_abduction_l	mp_flexion_l	ip_flexion_l	2mcp_flexion_l	2mcp_abduction_l	2pm_flexion_l	2md_flexion_l	3mcp_flexion_l	3mcp_abduction_l	3pm_flexion_l	3md_flexion_l	4mcp_flexion_l	4mcp_abduction_l	4pm_flexion_l	4md_flexion_l	5mcp_flexion_l	5mcp_abduction_l	5pm_flexion_l	5md_flexion_l
-0.995000	-160.147433	-5.066637	-73.570646	0.081246	-0.182018	-0.014590	100.359856	3.309250	0.482989	15.143487	8.135870	-25.520000	-41.473538	29.618116	6.248733	41.933611	28.419376	22.934251	3.970199	43.483667	28.843125	11.642143	-4.241484	51.752650	35.350039	-0.508833	-7.170224	61.459387	41.771490
-0.985000	-160.147433	-5.066637	-73.570646	0.081246	-0.182011	-0.014595	100.345949	3.299522	0.491724	15.137390	8.154619	-25.522482	-41.487745	29.618404	6.251496	41.935185	28.411243	22.925542	3.970418	43.494115	28.840107	11.626691	-4.244715	51.771107	35.352498	-0.519116	-7.165855	61.458761	41.765477
-0.975000	-160.147433	-5.066637	-73.570646	0.081245	-0.182006	-0.014602	100.331871	3.287849	0.499703	15.130085	8.170722	-25.520351	-41.497356	29.620396	6.254198	41.935256	28.404176	22.917701	3.971146	43.500327	28.838067	11.609270	-4.248387	51.792852	35.355445	-0.528853	-7.164823	61.465218	41.761894
-0.965000	-160.147433	-5.066637	-73.570646	0.081242	-0.182003	-0.014610	100.319219	3.276384	0.505308	15.124410	8.183581	-25.518682	-41.503599	29.622589	6.256945	41.936392	28.403196	22.910861	3.972653	43.502813	28.838722	11.592412	-4.252291	51.817019	35.359832	-0.538984	-7.168041	61.481657	41.765594
-0.955000	-160.147433	-5.066637	-73.570646	0.081237	-0.182004	-0.014616	100.309456	3.267264	0.508224	15.121867	8.193264	-25.521580	-41.508193	29.623368	6.259797	41.940261	28.410782	22.904072	3.975009	43.503434	28.842946	11.577349	-4.256092	51.842995	35.366137	-0.551320	-7.174702	61.508026	41.778426
-0.945000	-160.147433	-5.066637	-73.570646	0.081230	-0.182006	-0.014620	100.303397	3.261944	0.509518	15.121411	8.200487	-25.530348	-41.512405	29.621823	6.262550	41.947382	28.426371	22.895971	3.978095	43.504103	28.850429	11.564016	-4.259404	51.869783	35.374029	-0.567073	-7.182511	61.540406	41.798234
-0.935000	-160.147433	-5.066637	-73.570646	0.081223	-0.182009	-0.014622	100.300660	3.260688	0.510945	15.119840	8.206756	-25.543036	-41.516210	29.618320	6.264750	41.957194	28.447241	22.885802	3.981618	43.505612	28.859922	11.551888	-4.261902	51.895157	35.382453	-0.585557	-7.188574	61.571901	41.820151
-0.925000	-160.147433	-5.066637	-73.570646	0.081218	-0.182009	-0.014621	100.299434	3.262381	0.514054	15.113368	8.213995	-25.555491	-41.517862	29.614424	6.265931	41.968139	28.469977	22.874009	3.985158	43.507202	28.869834	11.540823	-4.263402	51.915442	35.390019	-0.604114	-7.190561	61.595109	41.839267
-0.915000	-160.147433	-5.066637	-73.570646	0.081215	-0.182005	-0.014619	100.296999	3.264899	0.519600	15.099453	8.223111	-25.563291	-41.514461	29.612200	6.265848	41.977821	28.491559	22.862089	3.988266	43.506985	28.878704	11.531298	-4.263853	51.926364	35.395422	-0.619436	-7.187727	61.605222	41.852886
-0.905000	-160.147433	-5.066637	-73.570646	0.081216	-0.181997	-0.014618	100.291009	3.266031	0.527413	15.078138	8.232218	-25.563636	-41.503679	29.613343	6.264538	41.983571	28.509747	22.851932	3.990608	43.502896	28.885367	11.524051	-4.263275	51.924734	35.397697	-0.629349	-7.181379	61.602240	41.861022
-0.895000	-160.147433	-5.066637	-73.570646	0.081221	-0.181988	-0.014617	100.280868	3.264570	0.536542	15.052425	8.236407	-25.556393	-41.485683	29.618535	6.262261	41.983531	28.523124	22.845107	3.992062	43.493840	28.889028	11.519540	-4.261713	51.910271	35.396397	-0.633725	-7.174509	61.591064	41.865168
-0.885000	-160.147433	-5.066637	-73.570646	0.081229	-0.181979	-0.014617	100.268243	3.260919	0.545529	15.027449	8.230027	-25.543950	-41.463765	29.627159	6.259426	41.977799	28.531194	22.842317	3.992715	43.480573	28.889512	11.517534	-4.259313	51.886630	35.391795	-0.634106	-7.170567	61.579246	41.866545
-0.875000	-160.147433	-5.066637	-73.570646	0.081238	-0.181974	-0.014618	100.256239	3.256788	0.552825	15.008562	8.210316	-25.530151	-41.443021	29.637407	6.256539	41.968826	28.534494	22.843144	3.992757	43.465834	28.887533	11.517017	-4.256398	51.860771	35.384960	-0.632651	-7.171896	61.573593	41.865178
-0.865000	-160.147433	-5.066637	-73.570646	0.081248	-0.181972	-0.014619	100.247712	3.254177	0.557310	14.999007	8.179958	-25.518894	-41.427955	29.646855	6.254097	41.960584	28.534369	22.846170	3.992352	43.453443	28.884594	11.516506	-4.253452	51.840476	35.377475	-0.631229	-7.178666	61.577414	41.860388
-0.855000	-160.147433	-5.066637	-73.570646	0.081256	-0.181975	-0.014620	100.243722	3.254251	0.558721	14.998312	8.147048	-25.512942	-41.420575	29.653547	6.252445	41.956807	28.532377	22.849543	3.991620	43.446659	28.882411	11.514790	-4.250955	51.831013	35.370865	-0.630904	-7.188987	61.589655	41.852110
-0.845000	-160.147433	-5.066637	-73.570646	0.081260	-0.181980	-0.014619	100.243056	3.256777	0.557729	15.002393	8.122457	-25.513262	-41.420059	29.657100	6.251670	41.959285	28.529696	22.851792	3.990719	43.446679	28.882192	11.511689	-4.249207	51.832865	35.366097	-0.631693	-7.200042	61.605944	41.841815
-0.835000	-160.147433	-5.066637	-73.570646	0.081262	-0.181984	-0.014618	100.243084	3.260394	0.555652	15.005490	8.115672	-25.519072	-41.423955	29.658992	6.251640	41.967240	28.526903	22.852365	3.989911	43.452230	28.884271	11.508187	-4.248247	51.841956	35.363441	-0.632608	-7.209417	61.620629	41.832079
-0.825000	-160.147433	-5.066637	-73.570646	0.081262	-0.181987	-0.014617	100.241449	3.263486	0.553993	15.003010	8.130743	-25.528594	-41.430047	29.661517	6.252164	41.978044	28.524228	22.851521	3.989458	43.460570	28.888338	11.505719	-4.247898	51.852181	35.362616	-0.632121	-7.215827	61.628871	41.825010
-0.815000	-160.147433	-5.066637	-73.570646	0.081260	-0.181985	-0.014616	100.237520	3.265025	0.553989	14.993744	8.164344	-25.540187	-41.437742	29.666022	6.253216	41.988708	28.521947	22.849689	3.989445	43.469312	28.894008	11.505137	-4.247871	51.858580	35.363029	-0.628946	-7.219107	61.628225	41.820835
-0.805000	-160.147433	-5.066637	-73.570646	0.081257	-0.181979	-0.014617	100.232713	3.264814	0.556300	14.980187	8.207207	-25.553264	-41.448255	29.671761	6.255102	41.997132	28.520610	22.846882	3.989706	43.477822	28.901234	11.506185	-4.247918	51.859401	35.364004	-0.622732	-7.219898	61.619462	41.817863
-0.795000	-160.147433	-5.066637	-73.570646	0.081254	-0.181969	-0.014620	100.229607	3.263060	0.560895	14.966847	8.248217	-25.568469	-41.463602	29.676344	6.258409	42.002488	28.520934	22.842695	3.989966	43.487210	28.910201	11.507808	-4.247944	51.856198	35.365072	-0.614296	-7.219302	61.606324	41.813950
-0.785000	-160.147433	-5.066637	-73.570646	0.081250	-0.181956	-0.014626	100.230652	3.259776	0.567207	14.957573	8.278748	-25.587020	-41.485064	29.677468	6.263654	42.004709	28.523434	22.836842	3.990072	43.498917	28.920784	11.508916	-4.248045	51.852296	35.366200	-0.605340	-7.218466	61.594002	41.808319
-0.775000	-160.147433	-5.066637	-73.570646	0.081247	-0.181941	-0.014638	100.237513	3.254685	0.574531	14.953456	8.294889	-25.609534	-41.512021	29.674673	6.270800	42.003660	28.527955	22.829794	3.990072	43.512861	28.931960	11.509061	-4.248426	51.850612	35.367727	-0.597827	-7.218104	61.586774	41.802349
-0.765000	-160.147433	-5.066637	-73.570646	0.081243	-0.181925	-0.014654	100.251319	3.247817	0.582519	14.952398	8.296942	-25.634959	-41.541817	29.669901	6.279005	41.998703	28.533345	22.823017	3.990091	43.526458	28.941607	11.508702	-4.249262	51.851937	35.369903	-0.593256	-7.218205	61.586008	41.798744
-0.755000	-160.147433	-5.066637	-73.570646	0.081238	-0.181906	-0.014674	100.273130	3.240267	0.591553	14.950344	8.287480	-25.660189	-41.570512	29.666473	6.286864	41.989113	28.537618	22.818576	3.990113	43.535371	28.947044	11.509084	-4.250577	51.854453	35.372334	-0.592055	-7.218183	61.589654	41.799648
-0.745000	-160.147433	-5.066637	-73.570646	0.081233	-0.181881	-0.014699	100.303591	3.234358	0.602762	14.943309	8.269779	-25.680700	-41.593906	29.667153	6.293088	41.975177	28.538802	22.818188	3.989891	43.535896	28.946380	11.511794	-4.252194	51.854725	35.373833	-0.593299	-7.217355	61.593535	41.804997
